# xmcd CD database file
#
# Track frame offsets:
#	182
#	27652
#	58140
#	84482
#	105282
#	125577
#	165670
#	182897
#	215825
#	237645
#	262180
#
# Disc length: 3734 seconds
#
# Revision: 0
# Processed by: cddbd v1.4PL0 Copyright (c) Steve Scherf et al.
# Submitted via: CDex 1.50beta10
#
DISCID=a60e940b
DTITLE=Varios - Orgue
DYEAR=1972
DGENRE=Jazz
TTITLE0=Misty-Richard Groove holmes
TTITLE1=Midnight Special-Jimmy Smith
TTITLE2=One o'clock Jump-Jack McDuff
TTITLE3=My Funny Valentine-Johnny Hammond Smith
TTITLE4=Take Five-Trudy Pitts
TTITLE5=I'm a Fool to Want You-Milt Buckner
TTITLE6=The Very Thought of You-Shirley Scott
TTITLE7=Li'l Darlin-Dr Lonnie Smith
TTITLE8=Sunny-Oscar Peterson
TTITLE9=I Found a New Baby-Larry Young
TTITLE10=Satin Doll- Melvin Rhyne
EXTD=YEAR: 1972
EXTT0=
EXTT1=
EXTT2=
EXTT3=
EXTT4=
EXTT5=
EXTT6=
EXTT7=
EXTT8=
EXTT9=
EXTT10=
PLAYORDER=
